<svg width="63" height="52" viewBox="0 0 63 52" fill="none" xmlns="http://www.w3.org/2000/svg">
<path d="M39.2048 38.9674C39.2048 36.7955 41.9377 34.138 47.6588 34.138C47.9908 34.138 48.3484 34.138 48.6804 34.1636C48.2462 38.3031 44.9515 41.1649 41.7334 41.1649C40.2009 41.1649 39.2048 40.4495 39.2048 38.9674ZM28.0947 16.2769H28.1713L26.3835 32.656C24.5956 32.1194 22.5524 31.6594 20.4836 31.3528L28.0947 16.2769ZM15.6819 31.0206C11.4422 31.0206 6.97259 32.0938 4.67393 34.6235C3.32028 32.0427 2.80947 29.4364 2.80947 26.7278C2.80947 19.4198 7.56002 12.6484 16.7291 8.33008L15.5542 5.8515C4.82718 10.732 0 18.7555 0 26.7278C0 30.5096 0.893922 34.138 3.24366 37.5876C3.16704 37.9709 3.1415 38.3542 3.1415 38.763C3.1415 41.676 4.95488 43.7713 8.73489 43.7713C12.6681 43.7713 16.0395 41.0627 18.0572 35.7223H15.12C13.6387 39.2996 11.2379 41.1394 8.73489 41.1394C6.7938 41.1394 5.92542 40.245 5.92542 38.763C5.92542 36.2333 9.01584 33.6525 15.733 33.6525C18.9511 33.6525 22.8589 34.1891 26.1025 35.2879L25.6172 39.7851H28.3501L30.9297 15.6125C32.1301 15.3059 34.2755 15.1015 35.7313 15.1015C41.7589 15.1015 43.419 17.2223 43.419 19.522C43.419 22.5628 40.9161 24.7092 34.914 25.3735L35.8079 17.1201L33.0751 17.2223L30.6743 39.7851H33.4071L34.6075 28.3632C36.9062 27.7755 39.0261 27.4688 40.865 27.4688C44.9004 27.4688 47.6588 29.1042 48.4761 31.5572C48.1951 31.5317 47.9397 31.5317 47.6588 31.5317C39.8689 31.5317 36.4209 35.5178 36.4209 38.993C36.4209 42.0848 38.7196 43.7968 41.7078 43.7968C46.0497 43.7968 50.7492 40.2961 51.4133 34.5724C53.4054 35.0068 55.321 35.85 57.0322 36.8721C52.3327 43.8224 42.8572 48.3963 31.466 48.3963C25.8726 48.3963 18.9001 47.1953 14.2772 44.0012L12.8469 46.301C17.3932 49.5972 24.6978 51.1304 31.4916 51.1304C49.9574 51.1304 62.9832 40.2195 62.9832 26.7534C62.9832 12.5973 48.8337 2.37637 31.5171 2.37637C30.4444 2.37637 29.7037 2.40193 28.6821 2.47858L28.9631 5.18714C29.7804 5.16159 30.6743 5.11048 31.4916 5.11048C46.9437 5.11048 60.1737 14.4371 60.1737 26.7534C60.1737 29.5386 59.5607 32.1705 58.3859 34.5724C56.6491 33.4481 54.095 32.4004 51.3877 31.8894C50.8003 28.5931 48.093 25.7824 42.8572 25.2458C44.9515 24.0448 46.2541 21.924 46.2541 19.522C46.2541 15.3059 43.2658 12.4696 35.7569 12.4696C34.4288 12.4696 32.5387 12.5973 31.2617 12.8529L31.5682 9.96544L28.7843 9.19887L26.3835 13.9261C22.5013 15.0759 18.7468 16.7368 16.5248 17.9889L17.7507 20.3653C19.3853 19.4965 21.9394 18.3466 24.6978 17.3501L17.7763 31.0973C17.0611 31.0462 16.3715 31.0206 15.6819 31.0206ZM26.409 6.51586C26.409 3.52623 23.0121 0.868782 19.2576 0C19.2576 0.0255524 18.6447 2.37637 18.6447 4.70164C18.6447 8.89224 20.8156 10.1188 22.8333 10.1188C24.9787 10.1188 26.409 8.66226 26.409 6.51586Z" fill="#192A47"/>
</svg>
