<svg width="351" height="54" viewBox="0 0 351 54" fill="none" xmlns="http://www.w3.org/2000/svg">
<g clip-path="url(#clip0_3_4316)">
<path d="M41.8331 41.5597C41.8331 39.3878 44.5659 36.7303 50.287 36.7303C50.6191 36.7303 50.9766 36.7303 51.3087 36.7559C50.8745 40.8954 47.5797 43.7573 44.3616 43.7573C42.8292 43.7573 41.8331 43.0418 41.8331 41.5597ZM30.7229 18.8692H30.7995L29.0117 35.2483C27.2239 34.7117 25.1806 34.2518 23.1118 33.9451L30.7229 18.8692ZM18.3102 33.6129C14.0704 33.6129 9.60083 34.6862 7.30218 37.2158C5.94853 34.635 5.43771 32.0287 5.43771 29.3201C5.43771 22.0122 10.1883 15.2408 19.3574 10.9224L18.1825 8.44383C7.45542 13.3243 2.62825 21.3478 2.62825 29.3201C2.62825 33.1019 3.52217 36.7303 5.8719 40.1799C5.79528 40.5632 5.76974 40.9465 5.76974 41.3553C5.76974 44.2683 7.58313 46.3636 11.3631 46.3636C15.2964 46.3636 18.6678 43.655 20.6855 38.3146H17.7483C16.2669 41.8919 13.8661 43.7317 11.3631 43.7317C9.42205 43.7317 8.55367 42.8374 8.55367 41.3553C8.55367 38.8256 11.6441 36.2448 18.3613 36.2448C21.5794 36.2448 25.4871 36.7814 28.7308 37.8802L28.2455 42.3774H30.9783L33.5579 18.2048C34.7583 17.8982 36.9038 17.6938 38.3596 17.6938C44.3872 17.6938 46.0473 19.8147 46.0473 22.1144C46.0473 25.1551 43.5443 27.3015 37.5423 27.9659L38.4362 19.7124L35.7033 19.8147L33.3025 42.3774H36.0354L37.2358 30.9555C39.5344 30.3678 41.6543 30.0612 43.4932 30.0612C47.5287 30.0612 50.287 31.6965 51.1043 34.1495C50.8234 34.124 50.568 34.124 50.287 34.124C42.4972 34.124 39.0492 38.1102 39.0492 41.5853C39.0492 44.6771 41.3478 46.3891 44.3361 46.3891C48.678 46.3891 53.3775 42.8885 54.0415 37.1647C56.0337 37.5991 57.9492 38.4424 59.6604 39.4645C54.961 46.4147 45.4854 50.9886 34.0943 50.9886C28.5009 50.9886 21.5283 49.7876 16.9055 46.5936L15.4752 48.8933C20.0214 52.1895 27.326 53.7227 34.1198 53.7227C52.5857 53.7227 65.6114 42.8118 65.6114 29.3457C65.6114 15.1897 51.4619 4.9687 34.1454 4.9687C33.0727 4.9687 32.332 4.99426 31.3104 5.07091L31.5913 7.77947C32.4086 7.75392 33.3025 7.70281 34.1198 7.70281C49.5719 7.70281 62.8019 17.0294 62.8019 29.3457C62.8019 32.1309 62.189 34.7628 61.0141 37.1647C59.2773 36.0404 56.7233 34.9928 54.016 34.4817C53.4285 31.1855 50.7212 28.3747 45.4854 27.8381C47.5797 26.6371 48.8823 24.5163 48.8823 22.1144C48.8823 17.8982 45.8941 15.0619 38.3851 15.0619C37.057 15.0619 35.167 15.1897 33.89 15.4452L34.1964 12.5578L31.4125 11.7912L29.0117 16.5184C25.1295 17.6682 21.3751 19.3292 19.153 20.5812L20.379 22.9576C22.0136 22.0888 24.5676 20.939 27.326 19.9424L20.4045 33.6896C19.6894 33.6385 18.9998 33.6129 18.3102 33.6129ZM29.0372 9.10819C29.0372 6.11856 25.6403 3.46111 21.8859 2.59233C21.8859 2.61788 21.2729 4.9687 21.2729 7.29397C21.2729 11.4846 23.4438 12.7111 25.4616 12.7111C27.607 12.7111 29.0372 11.2546 29.0372 9.10819Z" fill="white"/>
<path d="M93.1442 21.0668C90.0282 21.0668 88.2659 22.6255 87.9084 24.9252H83.4643C84.1794 19.7636 87.653 17.0551 93.1442 17.0551C99.1462 17.0551 102.39 20.0702 102.39 26.2539V39.72H97.9458V34.3796C96.8221 37.6247 94.4723 40.1544 89.9005 40.1544C85.7119 40.1544 83.1067 37.9314 83.1067 33.9196C83.1067 28.8603 87.7807 26.1262 97.9458 26.1262V25.7684C97.9458 22.6255 96.158 21.0668 93.1442 21.0668ZM90.9222 36.3727C95.4939 36.3727 97.9458 33.2042 97.9458 29.3969C90.6157 29.3969 87.7551 31.0833 87.7551 33.7663C87.7551 35.4272 88.9555 36.3727 90.9222 36.3727ZM106.195 32.4376H110.818C111.355 34.7629 112.862 36.1683 116.233 36.1683C120.243 36.1683 121.264 34.7373 121.264 33.1531C121.264 31.6455 120.115 30.4956 117.05 30.4956H113.321V26.7139H116.386C119.553 26.7139 120.575 25.6407 120.575 24.0564C120.575 22.4211 119.196 21.0668 116.207 21.0668C112.862 21.0668 111.661 22.7532 111.278 24.5675H106.655C107.089 19.9936 110.665 17.0551 116.31 17.0551C122.541 17.0551 125.249 19.9425 125.249 23.3154C125.249 25.5896 123.87 27.506 121.341 28.1704C124.176 28.7836 125.964 30.8023 125.964 33.2808C125.964 36.8837 123.129 40.18 116.284 40.18C109.746 40.18 106.655 37.037 106.195 32.4376ZM131.455 35.1717C129.999 32.8976 129.489 29.8824 129.489 26.0495C129.489 15.2919 133.396 10.667 142.744 9.54265C145.758 9.18491 147.367 8.82718 147.673 7.72842H151.862C151.147 11.9446 148.031 12.89 143.459 13.4777C135.899 14.4487 133.958 17.2595 133.779 23.8776C135.235 20.4024 138.658 18.0005 142.846 18.0005C149.155 18.0005 153.037 22.9832 153.037 29.0647C153.037 35.2484 148.337 40.18 141.263 40.18C136.691 40.18 133.192 37.9058 131.455 35.1717ZM148.337 29.0647C148.337 24.9763 145.4 21.9867 141.237 21.9867C137.1 21.9867 134.162 24.9763 134.162 29.0647C134.162 33.2553 137.1 36.1683 141.237 36.1683C145.4 36.1938 148.337 33.2553 148.337 29.0647ZM156.383 48.6378V44.6261C161.057 44.6261 161.951 43.7829 163.355 39.8223L154.365 17.4894H159.116L165.731 34.073L172.269 17.4894H176.585L167.161 40.8699C164.786 46.9003 163.049 48.6378 156.383 48.6378ZM179.242 17.515H183.686V27.5315L193.417 17.515H198.755L188.436 28.0937L199.598 39.7456H193.595L183.686 29.2947V39.7456H179.242V17.515V17.515ZM210.606 21.0668C207.49 21.0668 205.727 22.6255 205.37 24.9252H200.926C201.641 19.7636 205.114 17.0551 210.606 17.0551C216.608 17.0551 219.851 20.0702 219.851 26.2539V39.72H215.407V34.3796C214.283 37.6247 211.934 40.1544 207.362 40.1544C203.173 40.1544 200.568 37.9314 200.568 33.9196C200.568 28.8603 205.242 26.1262 215.407 26.1262V25.7684C215.407 22.6255 213.645 21.0668 210.606 21.0668ZM208.383 36.3727C212.955 36.3727 215.407 33.2042 215.407 29.3969C208.077 29.3969 205.216 31.0833 205.216 33.7663C205.242 35.4272 206.442 36.3727 208.383 36.3727ZM237.066 17.515H247.103C252.032 17.515 254.74 19.6103 254.74 23.2898C254.74 25.6151 253.309 27.5571 250.474 28.3237C253.718 28.8603 255.71 30.5467 255.71 33.5364C255.71 36.5515 253.744 39.7712 247.665 39.7712H237.04V17.515H237.066ZM250.168 24.0309C250.168 22.4722 249.197 21.2712 246.873 21.2712H241.433V26.7394H246.899C249.197 26.765 250.168 25.564 250.168 24.0309ZM241.433 30.3168V35.9638H247.435C250.091 35.9638 251.087 34.6862 251.087 33.0764C251.087 31.6455 250.117 30.3168 247.231 30.3168H241.433ZM260.103 17.515H264.547V27.5315L274.278 17.515H279.616L269.298 28.0937L280.459 39.7456H274.457L264.547 29.2947V39.7456H260.103V17.515ZM282.4 48.6378V44.6261C287.074 44.6261 287.968 43.7829 289.373 39.8223L280.383 17.4894H285.133L291.748 34.073L298.286 17.4894H302.603L293.178 40.8699C290.803 46.9003 289.066 48.6378 282.4 48.6378ZM321.477 31.5177H325.921C324.849 37.1648 320.992 40.18 315.348 40.18C308.452 40.18 303.778 35.0695 303.778 28.6047C303.778 22.1911 308.452 17.0295 315.245 17.0295C321.12 17.0295 324.9 20.2747 325.743 25.4874H321.299C320.456 22.651 318.54 21.0412 315.245 21.0412C311.159 21.0412 308.452 24.0564 308.452 28.6047C308.452 33.1786 311.261 36.1683 315.245 36.1683C318.54 36.1938 320.686 34.6351 321.477 31.5177ZM339.126 21.0668C336.01 21.0668 334.248 22.6255 333.89 24.9252H329.446C330.161 19.7636 333.635 17.0551 339.126 17.0551C345.128 17.0551 348.372 20.0702 348.372 26.2539V39.72H343.928V34.3796C342.804 37.6247 340.454 40.1544 335.882 40.1544C331.694 40.1544 329.088 37.9314 329.088 33.9196C329.088 28.8603 333.762 26.1262 343.928 26.1262V25.7684C343.928 22.6255 342.14 21.0668 339.126 21.0668ZM336.904 36.3727C341.476 36.3727 343.928 33.2042 343.928 29.3969C336.597 29.3969 333.737 31.0833 333.737 33.7663C333.737 35.4272 334.937 36.3727 336.904 36.3727Z" fill="white"/>
</g>
<defs>
<clipPath id="clip0_3_4316">
<rect width="349.271" height="52.9199" fill="white" transform="translate(0.864258 0.828339)"/>
</clipPath>
</defs>
</svg>
